<?xml version="1.0" encoding="UTF-8"?>
<svg version="1.1" xmlns="http://www.w3.org/2000/svg" width="768" height="715">
<path d="M0 0 C0.91673807 -0.00410527 1.83347614 -0.00821054 2.77799416 -0.0124402 C5.86053828 -0.02378038 8.94290369 -0.02086574 12.02546501 -0.01802826 C14.25361012 -0.02319553 16.48175338 -0.02922184 18.70989406 -0.03603506 C24.84143136 -0.05218197 30.97292184 -0.05575459 37.10447788 -0.05723 C43.03551686 -0.06055005 48.96653423 -0.07318531 54.89755998 -0.08538682 C70.78662214 -0.11749444 86.67568044 -0.12931189 102.56476921 -0.13888432 C110.08242356 -0.14355737 117.60007485 -0.15076279 125.11772681 -0.15827507 C150.85521433 -0.18394475 176.59270015 -0.20538343 202.3302002 -0.21228027 C203.94560243 -0.21272354 205.56100467 -0.21316711 207.17640691 -0.21361098 C208.79569252 -0.21405226 210.41497812 -0.21449322 212.03426373 -0.21493387 C215.2827855 -0.21581897 218.53130726 -0.21671321 221.77982903 -0.21761322 C222.5852725 -0.217832 223.39071597 -0.21805078 224.22056681 -0.2182762 C250.33612126 -0.22553719 276.45156466 -0.25737737 302.56707657 -0.30399395 C330.18284603 -0.35319832 357.79855203 -0.3806263 385.4143666 -0.38301611 C388.44653568 -0.38335901 391.47870474 -0.38378987 394.51087379 -0.38428497 C395.25747013 -0.38439651 396.00406646 -0.38450805 396.77328692 -0.38462297 C408.78222248 -0.38692316 420.79104398 -0.40895995 432.79994104 -0.43805908 C444.87305275 -0.4668077 456.94601843 -0.47325259 469.01915498 -0.45717913 C475.55835927 -0.44905819 482.09725648 -0.45124948 488.6364212 -0.47929382 C494.62500266 -0.50474205 500.61291206 -0.50240373 506.60149239 -0.4781124 C508.76571782 -0.47419316 510.92999062 -0.48038 513.09414949 -0.49780113 C526.78659767 -0.60102804 537.04870526 -0.00877176 547.78373528 9.45035553 C554.62781162 17.28381186 556.59004012 25.84046807 556.47264767 35.99241066 C556.47961527 37.12686345 556.48658288 38.26131625 556.49376163 39.4301464 C556.51097718 43.22345464 556.49265334 47.01573752 556.47442436 50.80902863 C556.47669663 53.55924322 556.48649399 56.30941975 556.49592251 59.05961788 C556.51241017 65.03482666 556.51038742 71.00980468 556.49609566 76.98501587 C556.47490174 85.87029877 556.48237488 94.75539814 556.49547087 103.64068839 C556.51791675 119.5103555 556.51193846 135.37991604 556.49403478 151.24958325 C556.47846544 165.13615686 556.47261526 179.02269311 556.47637558 192.90927505 C556.47673078 194.2911421 556.47673078 194.2911421 556.47709316 195.70092565 C556.47806808 199.44056694 556.4790889 203.18020822 556.48017826 206.91984948 C556.49025999 241.99595061 556.47199971 277.07198613 556.44045791 312.14807183 C556.41259286 343.31282112 556.40763592 374.47749239 556.42265129 405.64225006 C556.42647371 413.62375191 556.4302685 421.60525377 556.43382168 429.58675575 C556.43425949 430.56936637 556.43469731 431.55197699 556.43514839 432.56436368 C556.44638656 458.60540653 556.4390406 484.64644364 556.42594093 510.68748462 C556.42455236 513.48928304 556.42317165 516.29108145 556.42180251 519.09287988 C556.42089313 520.9515181 556.41997046 522.81015632 556.41903441 524.66879453 C556.41223741 538.54821023 556.4148998 552.42760339 556.42198181 566.30701828 C556.42994535 582.08640054 556.42339265 597.86570425 556.39780677 613.64506926 C556.38387649 622.47710204 556.38090738 631.3089767 556.39374148 640.14101206 C556.40119851 646.03931299 556.3941214 651.93748066 556.37518336 657.83575561 C556.36479211 661.19717186 556.36287174 664.55800718 556.37416191 667.91946007 C556.38531814 671.54161559 556.37196214 675.16288175 556.35239315 678.78498268 C556.36147197 679.8266893 556.37055078 680.86839592 556.37990472 681.9416694 C556.27641959 691.73632739 552.77332359 700.23215692 545.84623528 707.26285553 C537.34971408 713.69227006 528.98525461 715.57241689 518.55010986 715.51733112 C517.18837036 715.52214084 517.18837036 715.52214084 515.79912096 715.52704772 C512.75894444 715.5353451 509.71896505 715.52942429 506.67878532 715.52355194 C504.4763631 715.52657274 502.27394192 715.53046186 500.07152259 715.53514451 C494.02044507 715.54544244 487.96942667 715.5432381 481.91834426 715.53896391 C476.06229612 715.53675303 470.20626423 715.54390525 464.35022074 715.55072417 C450.89459417 715.56596161 437.43898642 715.56766951 423.98335303 715.56520114 C413.59270334 715.56336824 403.20205982 715.56512804 392.8114109 715.56942558 C391.31840913 715.57002798 389.82540736 715.57062918 388.33240559 715.57122919 C386.08257474 715.57213644 383.8327439 715.57304511 381.58291305 715.57396154 C360.66608949 715.5823907 339.74926826 715.58672701 318.83244324 715.58255482 C318.04397617 715.58239844 317.2555091 715.58224207 316.4431491 715.58208095 C312.44691801 715.58127517 308.45068694 715.5804294 304.45445587 715.57956765 C303.66079678 715.57939656 302.86713769 715.57922547 302.04942832 715.5790492 C300.44445721 715.57870255 298.83948609 715.57835402 297.23451497 715.57800361 C272.2598596 715.57264613 247.28523953 715.58057774 222.31059074 715.59903717 C194.2488411 715.61975408 166.18711332 715.6304805 138.1253556 715.62646168 C135.13313413 715.62606634 132.14091266 715.62570479 129.14869118 715.6253643 C128.04355699 715.62522821 128.04355699 715.62522821 126.91609686 715.62508936 C115.79526756 715.62392351 104.67446034 715.63057072 93.55363655 715.64117622 C80.90590004 715.65322561 68.25821219 715.65479018 55.61047496 715.64238606 C49.15664751 715.63648687 42.70291519 715.63542677 36.24909401 715.64738846 C30.34104532 715.65821143 24.43317159 715.65518655 18.52513121 715.64112677 C16.38792536 715.63846997 14.25070595 715.64087711 12.11351337 715.64886264 C9.20681246 715.65896948 6.30071965 715.65054577 3.39404297 715.63758564 C2.56587942 715.64489499 1.73771587 715.65220433 0.88445646 715.65973517 C-9.51736221 715.5637162 -17.63348004 712.43738 -25.15376472 705.26285553 C-33.76426492 696.20115008 -34.60186784 685.95847284 -34.4943409 673.91861725 C-34.49477898 672.6199321 -34.49521706 671.32124695 -34.49566841 669.9832077 C-34.49652258 666.4527931 -34.47899181 662.92268969 -34.45794654 659.39234686 C-34.43908218 655.69149483 -34.43742166 651.99063421 -34.43387032 648.28974152 C-34.42457832 641.29535285 -34.40000349 634.30110631 -34.36982185 627.30677998 C-34.33618875 619.33815875 -34.31976952 611.36953042 -34.30473554 603.40085578 C-34.27345106 587.02143941 -34.22074652 570.64216566 -34.15376472 554.26285553 C-34.9288359 554.26562091 -35.70390707 554.26838629 -36.50246525 554.27123547 C-55.38244479 554.33755739 -74.262401 554.38716631 -93.14247227 554.41829205 C-102.27282527 554.43374522 -111.40310039 554.45480506 -120.5334034 554.48917389 C-128.49358917 554.51912375 -136.45371853 554.53844179 -144.41395909 554.54512101 C-148.62684844 554.54902382 -152.83957642 554.55816352 -157.05241394 554.5800457 C-161.02259443 554.60049923 -164.992548 554.60667153 -168.96277618 554.60217857 C-170.41514763 554.60299983 -171.86752715 554.60891256 -173.31985283 554.62047195 C-185.8795178 554.71548315 -194.95400293 553.23781111 -204.15376472 544.26285553 C-209.39570171 537.8224415 -212.39959931 531.60045577 -212.41103363 523.17733288 C-212.41748252 521.9726488 -212.42393142 520.76796472 -212.43057573 519.52677506 C-212.42747852 518.21190497 -212.42438132 516.89703489 -212.42119026 515.54232025 C-212.42492822 514.12462237 -212.42953032 512.70692655 -212.43492091 511.28923398 C-212.44714835 507.39800052 -212.44689075 503.50685305 -212.44453216 499.61560476 C-212.44412393 495.41712138 -212.45516371 491.21866554 -212.46464729 487.02019501 C-212.48125676 478.79630797 -212.48675681 470.57244959 -212.48787205 462.34854718 C-212.48882253 455.66350345 -212.49293282 448.97846917 -212.4992733 442.29342842 C-212.5168854 423.33835371 -212.5261122 404.38330164 -212.52461235 385.42821869 C-212.52453244 384.40644914 -212.52445253 383.38467959 -212.52437019 382.33194733 C-212.52428843 381.30892965 -212.52420667 380.28591197 -212.52412243 379.23189376 C-212.52330949 362.6516759 -212.54244921 346.07154887 -212.57064693 329.49135729 C-212.59937448 312.46522056 -212.6131873 295.43912813 -212.61145937 278.41296655 C-212.61079544 268.85474932 -212.61628933 259.29662733 -212.63781548 249.73843193 C-212.65602555 241.60053919 -212.66037602 233.46278486 -212.64679663 225.32488056 C-212.64026615 221.17385578 -212.64015254 217.02309654 -212.65750313 212.87209702 C-212.67323553 209.06908383 -212.67036886 205.2665467 -212.65293486 201.46354512 C-212.64841559 199.4424046 -212.66352095 197.4212493 -212.67941415 195.40016621 C-212.6004872 184.99532143 -210.27749885 177.74897663 -203.13423347 170.11832428 C-192.75580087 160.39494068 -182.12172082 159.96178755 -168.45430183 160.03580475 C-166.98501277 160.0363698 -165.51572314 160.03605047 -164.0464344 160.03491974 C-160.08216751 160.03434889 -156.11802309 160.0460596 -152.15378451 160.06006765 C-148.00181188 160.07261987 -143.84983605 160.07374904 -139.69784737 160.07611847 C-131.84640024 160.08232009 -123.99500919 160.09871297 -116.1435867 160.11881745 C-107.20038796 160.14121759 -98.25718646 160.15218021 -89.31396663 160.16220832 C-70.92720094 160.18308044 -52.54048735 160.21823065 -34.15376472 160.26285553 C-34.1565301 159.5917808 -34.15929548 158.92070606 -34.16214466 158.22929573 C-34.2285177 141.86921357 -34.27810023 125.5091743 -34.30920124 109.14898872 C-34.32464282 101.23718798 -34.34568026 93.32547733 -34.38008308 85.41373444 C-34.4100687 78.51451917 -34.4293594 71.61536919 -34.43603021 64.71609056 C-34.43992702 61.06598408 -34.44902789 57.41606431 -34.4709549 53.76601791 C-34.49528571 49.68236148 -34.49572887 45.5990257 -34.4943409 41.51529694 C-34.50512672 40.31695221 -34.51591255 39.11860748 -34.52702522 37.88394928 C-34.48742455 27.08674701 -32.47589059 17.51744419 -25.15376472 9.26285553 C-17.20801515 2.4928185 -10.30925422 -0.04298496 0 0 Z " fill="#117B42" transform="translate(212.15376472473145,-0.26285552978515625)"/>
<path d="M0 0 C30.36 0 60.72 0 92 0 C92 58.74 92 117.48 92 178 C186.38 178 280.76 178 378 178 C378.1613254 261.20357312 378.1613254 261.20357312 378.1953125 295.93164062 C378.20314397 303.88061557 378.21122589 311.8295902 378.21972656 319.77856445 C378.22078156 320.77483606 378.22183655 321.77110767 378.22292352 322.79756933 C378.24031977 338.88068517 378.27185451 354.96374379 378.30861118 371.0468257 C378.34602003 387.55295672 378.36823574 404.0590578 378.37635398 420.56522948 C378.38184186 430.75006799 378.39917362 440.93474485 378.43166587 451.11953361 C378.45281304 458.10404972 378.45919958 465.08848228 378.45400551 472.07302808 C378.45144405 476.10250913 378.4553649 480.13170773 378.4768219 484.16113853 C378.4963393 487.85335299 378.49723677 491.54509601 378.48359558 495.23733253 C378.48111495 497.19912412 378.4983204 499.16091046 378.51632524 501.122621 C378.46760572 508.32815147 377.60968283 513.72042412 374 520 C373.33097656 521.19689453 373.33097656 521.19689453 372.6484375 522.41796875 C367.01634052 530.24416486 359.39943047 534.2534138 350 536 C346.89760262 536.26336251 343.81610209 536.27090464 340.70387459 536.25447559 C339.34213508 536.25928531 339.34213508 536.25928531 337.95288569 536.26419219 C334.91270916 536.27248957 331.87272978 536.26656876 328.83255005 536.26069641 C326.63012782 536.26371721 324.42770664 536.26760633 322.22528732 536.27228898 C316.17420979 536.28258691 310.1231914 536.28038257 304.07210898 536.27610838 C298.21606084 536.2738975 292.36002895 536.28104972 286.50398547 536.28786864 C273.0483589 536.30310608 259.59275115 536.30481398 246.13711776 536.30234561 C235.74646807 536.30051271 225.35582455 536.30227251 214.96517563 536.30657005 C213.47217386 536.30717245 211.97917209 536.30777365 210.48617031 536.30837366 C208.23633947 536.30928091 205.98650862 536.31018958 203.73667778 536.31110601 C182.81985422 536.31953517 161.90303298 536.32387148 140.98620796 536.31969929 C140.1977409 536.31954291 139.40927383 536.31938654 138.59691382 536.31922542 C134.60068274 536.31841964 130.60445166 536.31757387 126.60822059 536.31671212 C125.8145615 536.31654103 125.02090241 536.31636994 124.20319305 536.31619367 C122.59822193 536.31584702 120.99325081 536.31549849 119.3882797 536.31514808 C94.41362432 536.3097906 69.43900426 536.31772221 44.46435547 536.33618164 C16.40260582 536.35689855 -11.65912195 536.36762497 -39.72087967 536.36360615 C-42.71310115 536.36321081 -45.70532262 536.36284926 -48.6975441 536.36250877 C-49.80267828 536.36237268 -49.80267828 536.36237268 -50.93013841 536.36223383 C-62.05096772 536.36106798 -73.17177494 536.36771519 -84.29259872 536.37832069 C-96.94033523 536.39037008 -109.58802309 536.39193465 -122.23576032 536.37953053 C-128.68958776 536.37363134 -135.14332009 536.37257124 -141.59714127 536.38453293 C-147.50518996 536.3953559 -153.41306368 536.39233102 -159.32110406 536.37827124 C-161.45830992 536.37561444 -163.59552932 536.37802158 -165.73272191 536.38600711 C-168.63942281 536.39611395 -171.54551562 536.38769024 -174.45219231 536.37473011 C-175.28035586 536.38203946 -176.10851941 536.3893488 -176.96177882 536.39687964 C-187.36359748 536.30086067 -195.47971531 533.17452447 -203 526 C-211.63659667 516.91083058 -212.44757484 506.63743134 -212.34057617 494.56396484 C-212.34101425 493.25552612 -212.34145233 491.9470874 -212.34190369 490.59899902 C-212.34275794 487.04172676 -212.32522583 483.48476328 -212.30418181 479.92756224 C-212.28531883 476.19868286 -212.28365704 472.46979497 -212.28010559 468.74087524 C-212.2708132 461.69336315 -212.24623781 454.64599209 -212.21605712 447.59854186 C-212.18242528 439.56946213 -212.16600511 431.54037536 -212.15097082 423.51124263 C-212.11968543 407.00741277 -212.06698011 390.50372444 -212 374 C-210.55274379 373.99780016 -210.55274379 373.99780016 -209.07625008 373.99555588 C-185.58091388 373.95893283 -162.08571993 373.89944638 -138.59050179 373.81609726 C-127.22830092 373.7763172 -115.86616921 373.74391941 -104.50390625 373.72900391 C-94.59856267 373.71598209 -84.69337132 373.68900373 -74.78811347 373.64538693 C-69.54514076 373.62278422 -64.30235574 373.60708862 -59.05932999 373.60811615 C-54.11969585 373.60886345 -49.18047643 373.59088416 -44.24094963 373.55883217 C-42.43265488 373.55034622 -40.62431354 373.54857434 -38.81600761 373.55419731 C-26.71948818 373.58678791 -15.1868223 372.88215727 -6 364 C2.33037533 353.29901254 2.14952939 341.3913329 2.13371277 328.41186523 C2.135583 327.03297838 2.13788455 325.65409206 2.14057809 324.27520657 C2.14667599 320.50059452 2.14656488 316.72600468 2.14538372 312.95138884 C2.14517921 308.8749886 2.15070315 304.79859542 2.15544128 300.72219849 C2.16373667 292.74223285 2.1664956 284.76227459 2.16705366 276.782305 C2.16752922 270.29610225 2.16958594 263.80990193 2.17275429 257.32369995 C2.18155675 238.92875472 2.18617414 220.53381532 2.18542381 202.13886797 C2.18538386 201.14783646 2.1853439 200.15680496 2.18530273 199.13574219 C2.18524141 197.64737793 2.18524141 197.64737793 2.18517885 196.12894571 C2.18477219 180.03966443 2.19434788 163.95040654 2.2084411 147.86113203 C2.22280221 131.33553712 2.22971147 114.80995361 2.22884732 98.2843523 C2.22851533 89.00847701 2.23126368 79.73262626 2.24202538 70.45675659 C2.25112674 62.56155856 2.25330851 54.66639618 2.24651595 46.77119517 C2.24324931 42.7438936 2.24319936 38.71666046 2.2518692 34.68936539 C2.25972837 31.00071437 2.25830878 27.31218614 2.24958507 23.62353814 C2.24732265 21.66141311 2.25488318 19.69928429 2.26282471 17.73717403 C2.25822592 16.56272511 2.25362712 15.3882762 2.24888897 14.17823792 C2.24910634 13.17099954 2.24932371 12.16376116 2.24954766 11.1260004 C2.01739559 7.1370422 2.01739559 7.1370422 0 0 Z " fill="#175B36" transform="translate(390,179)"/>
<path d="M0 0 C64.47375 -0.185625 64.47375 -0.185625 130.25 -0.375 C143.81899414 -0.42962402 157.38798828 -0.48424805 171.36816406 -0.54052734 C187.94482422 -0.56762695 187.94482422 -0.56762695 195.70648193 -0.57266235 C201.12444886 -0.57824956 206.54205469 -0.6002238 211.9598999 -0.63345337 C218.87614412 -0.67581013 225.79187025 -0.68693371 232.70823622 -0.67843366 C235.24312057 -0.68021044 237.77802326 -0.69206588 240.31280184 -0.71529078 C264.83439226 -0.92948734 264.83439226 -0.92948734 274 6 C274.68259007 6.51241053 275.36518013 7.02482105 276.06845474 7.55275917 C281.81117213 12.57556669 285.38487716 19.67873487 286.45512831 27.1972965 C286.62676204 30.7956945 286.64279087 34.36248684 286.60127258 37.96476746 C286.60345725 39.34782459 286.60784302 40.73087968 286.61421841 42.11392385 C286.62532418 45.88606507 286.60550317 49.65748765 286.58032811 53.42953742 C286.55863341 57.50777196 286.56604987 61.58596954 286.56983948 65.66424561 C286.5724548 72.72068486 286.55683496 79.77689205 286.52865028 86.83327293 C286.48792732 97.03543694 286.47498408 107.23748932 286.46871033 117.43972579 C286.45778092 133.99414179 286.42454352 150.54843424 286.37719727 167.1027832 C286.33126659 183.17894891 286.29594923 199.25508084 286.2746582 215.33129883 C286.27331822 216.33317936 286.27197823 217.3350599 286.27059764 218.36730045 C286.26019986 226.20325491 286.25041547 234.0392101 286.24082482 241.87516558 C286.19369958 280.2502238 286.09309808 318.62497257 286 357 C191.62 357 97.24 357 0 357 C0 239.19 0 121.38 0 0 Z " fill="#32C380" transform="translate(482,0)"/>
<path d="M0 0 C94.38 0 188.76 0 286 0 C286 59.07 286 118.14 286 179 C191.62 179 97.24 179 0 179 C0 119.93 0 60.86 0 0 Z " fill="#107B41" transform="translate(482,357)"/>
<path d="M0 0 C94.38 0 188.76 0 286 0 C286 58.74 286 117.48 286 178 C191.62 178 97.24 178 0 178 C0 119.26 0 60.52 0 0 Z " fill="#20A265" transform="translate(482,179)"/>
<path d="M0 0 C1.14443766 -0.00170885 2.28887532 -0.0034177 3.4679929 -0.00517833 C7.30507032 -0.00847413 11.1419731 0.00253218 14.97903442 0.01345825 C17.72865408 0.01513602 20.47827032 0.01379392 23.22789001 0.01257324 C29.14881068 0.01152526 35.06968721 0.01779277 40.99059677 0.02904892 C49.55119937 0.04531274 58.11178066 0.05051283 66.67239703 0.0530249 C80.56189372 0.05740062 94.4513669 0.07070638 108.34085083 0.08963013 C121.83206059 0.10799211 135.32326393 0.12212412 148.81448364 0.13064575 C149.654759 0.13118175 150.49503436 0.13171774 151.36077261 0.13226998 C157.93241585 0.1364289 164.50405923 0.14034272 171.07570267 0.14417911 C203.27934134 0.16304165 235.48292116 0.2032794 267.68655396 0.24050903 C267.68655396 59.31050903 267.68655396 118.38050903 267.68655396 179.24050903 C242.93655396 179.24050903 218.18655396 179.24050903 192.68655396 179.24050903 C189.71655396 175.28050903 189.71655396 175.28050903 186.68655396 171.24050903 C179.06250444 163.78588284 171.17126348 161.64401898 160.77102661 161.51028442 C159.66314096 161.48199838 158.55525532 161.45371233 157.41379738 161.42456913 C153.50486829 161.33649875 149.59615727 161.28434163 145.68655396 161.24050903 C144.17375422 161.22156372 142.66095464 161.20260553 141.14815521 161.18363571 C129.53211884 161.04524622 117.91591716 160.98629192 106.29921675 160.937186 C101.26780063 160.91497881 96.23641137 160.88776381 91.20501709 160.86112976 C81.72150177 160.81166358 72.23797118 160.76655836 62.7544266 160.7231074 C51.93901767 160.67333531 41.12363573 160.61856842 30.30825305 160.56342781 C8.10104527 160.4503172 -14.10618839 160.34333011 -36.31344604 160.24050903 C-36.38365632 143.20257554 -36.43649292 126.16468748 -36.46888256 109.12664223 C-36.48432414 101.21484148 -36.50536158 93.30313084 -36.5397644 85.39138794 C-36.56975002 78.49217267 -36.58904072 71.59302269 -36.59571153 64.69374406 C-36.59960834 61.04363758 -36.60870921 57.39371781 -36.63063622 53.74367142 C-36.65496703 49.66001499 -36.65541019 45.5766792 -36.65402222 41.49295044 C-36.66480804 40.29460571 -36.67559387 39.09626099 -36.68670654 37.86160278 C-36.64710587 27.06440052 -34.63557191 17.49509769 -27.31344604 9.24050903 C-18.55477488 1.77783636 -11.28447826 -0.06154849 0 0 Z " fill="#20A265" transform="translate(214.31344604492188,-0.240509033203125)"/>
<path d="M0 0 C5.94 0 11.88 0 18 0 C21.20330441 8.68698828 21.42382029 16.81176494 21.38095093 25.94789124 C21.38441168 27.55878292 21.38917904 29.16967222 21.39513266 30.78055662 C21.4076148 35.18726643 21.40148502 39.59378043 21.39217401 44.00049078 C21.38537247 48.76059943 21.39587018 53.52067496 21.40411377 58.28077698 C21.4174412 67.59768548 21.41457786 76.91452141 21.40587585 86.23143274 C21.39909623 93.80406401 21.39818379 101.37667496 21.4014473 108.9493084 C21.401907 110.02774587 21.40236669 111.10618335 21.40284032 112.21730075 C21.40379951 114.40822384 21.40477215 116.59914692 21.4057581 118.79006999 C21.41430899 139.32541523 21.40448236 159.86072026 21.388357 180.39605891 C21.37495219 198.01218765 21.37728385 215.62825709 21.39111328 233.24438477 C21.40717111 253.7086179 21.41348705 274.17281583 21.40427649 294.63705438 C21.40332086 296.81953871 21.40237774 299.00202304 21.4014473 301.18450737 C21.40098447 302.25829409 21.40052164 303.33208081 21.40004479 304.43840652 C21.39745566 312.00150368 21.40182421 319.56457849 21.40888596 327.1276722 C21.41730331 336.34508932 21.41501574 345.5624298 21.39904372 354.77983815 C21.39116452 359.4817092 21.38806351 364.1834525 21.39799118 368.88532257 C21.40694565 373.19141799 21.40199283 377.49726754 21.38605852 381.80334073 C21.38271394 383.35904383 21.38439754 384.91476781 21.39168589 386.47045744 C21.4461114 399.05516641 19.91831193 409.27796618 11.28515625 418.9140625 C0.56970195 429.21316991 -12.26120523 428.56267245 -26.15893555 428.45410156 C-28.19008868 428.45297181 -30.22124344 428.45360944 -32.25239563 428.45587158 C-37.73931744 428.45701465 -43.22588625 428.43357133 -48.71272635 428.40557575 C-54.45688805 428.38049406 -60.20105871 428.37821477 -65.94526672 428.37347412 C-76.81059682 428.36106422 -87.67576506 428.32826945 -98.54102403 428.28807616 C-110.91586966 428.24329664 -123.2907232 428.22135587 -135.66562974 428.20129442 C-161.11053011 428.15953506 -186.55520873 428.08620745 -212 428 C-212 410.18 -212 392.36 -212 374 C-206.32699707 373.9906543 -200.65399414 373.98130859 -194.80908203 373.97167969 C-176.06948909 373.9379188 -157.33000587 373.88257552 -138.59050179 373.81609726 C-127.22830092 373.7763172 -115.86616921 373.74391941 -104.50390625 373.72900391 C-94.59856267 373.71598209 -84.69337132 373.68900373 -74.78811347 373.64538693 C-69.54514076 373.62278422 -64.30235574 373.60708862 -59.05932999 373.60811615 C-54.11969585 373.60886345 -49.18047643 373.59088416 -44.24094963 373.55883217 C-42.43265488 373.55034622 -40.62431354 373.54857434 -38.81600761 373.55419731 C-26.71948818 373.58678791 -15.1868223 372.88215727 -6 364 C2.33037533 353.29901254 2.14952939 341.3913329 2.13371277 328.41186523 C2.135583 327.03297838 2.13788455 325.65409206 2.14057809 324.27520657 C2.14667599 320.50059452 2.14656488 316.72600468 2.14538372 312.95138884 C2.14517921 308.8749886 2.15070315 304.79859542 2.15544128 300.72219849 C2.16373667 292.74223285 2.1664956 284.76227459 2.16705366 276.782305 C2.16752922 270.29610225 2.16958594 263.80990193 2.17275429 257.32369995 C2.18155675 238.92875472 2.18617414 220.53381532 2.18542381 202.13886797 C2.18538386 201.14783646 2.1853439 200.15680496 2.18530273 199.13574219 C2.18524141 197.64737793 2.18524141 197.64737793 2.18517885 196.12894571 C2.18477219 180.03966443 2.19434788 163.95040654 2.2084411 147.86113203 C2.22280221 131.33553712 2.22971147 114.80995361 2.22884732 98.2843523 C2.22851533 89.00847701 2.23126368 79.73262626 2.24202538 70.45675659 C2.25112674 62.56155856 2.25330851 54.66639618 2.24651595 46.77119517 C2.24324931 42.7438936 2.24319936 38.71666046 2.2518692 34.68936539 C2.25972837 31.00071437 2.25830878 27.31218614 2.24958507 23.62353814 C2.24732265 21.66141311 2.25488318 19.69928429 2.26282471 17.73717403 C2.25822592 16.56272511 2.25362712 15.3882762 2.24888897 14.17823792 C2.24910634 13.17099954 2.24932371 12.16376116 2.24954766 11.1260004 C2.01739559 7.1370422 2.01739559 7.1370422 0 0 Z " fill="#0E3520" transform="translate(390,179)"/>
<path d="M0 0 C16.5 0 33 0 50 0 C53.3 6.27 56.6 12.54 60 19 C61.48693359 21.81724609 61.48693359 21.81724609 63.00390625 24.69140625 C68.78594086 35.67760284 74.44028744 46.72844432 80.02389526 57.81661987 C80.79558934 59.34752055 81.56927154 60.87742078 82.34500122 62.40628052 C83.43788346 64.56213492 84.52268786 66.72187066 85.60546875 68.8828125 C85.93406891 69.52771133 86.26266907 70.17261017 86.60122681 70.83705139 C88.27658858 74.20417267 89.47713787 77.26679097 90 81 C90.66 81 91.32 81 92 81 C92.41185547 79.68273926 92.41185547 79.68273926 92.83203125 78.33886719 C93.91576857 75.24079204 95.17096281 72.48343632 96.6875 69.578125 C97.21601563 68.56226318 97.74453125 67.54640137 98.2890625 66.49975586 C99.13597656 64.89112671 99.13597656 64.89112671 100 63.25 C100.58523437 62.13181885 101.17046875 61.0136377 101.7734375 59.86157227 C105.48308765 52.80220118 109.27046396 45.79264739 113.1784668 38.84130859 C117.36731044 31.38789232 121.41338003 23.85830171 125.44726562 16.32006836 C125.96611328 15.35593018 126.48496094 14.39179199 127.01953125 13.3984375 C127.47432861 12.54942871 127.92912598 11.70041992 128.39770508 10.82568359 C128.9264624 9.89320801 129.45521973 8.96073242 130 8 C130.45923607 6.96598053 130.45923607 6.96598053 130.92774963 5.91107178 C132.09487619 3.57529558 133.14190916 1.8414652 135 0 C138.52757882 -1.10230325 141.88454866 -0.93565812 145.55078125 -0.78125 C146.56472458 -0.76993042 147.57866791 -0.75861084 148.62333679 -0.74694824 C151.85499784 -0.70223984 155.08218558 -0.60188599 158.3125 -0.5 C160.5057952 -0.45986592 162.6991601 -0.42336503 164.89257812 -0.390625 C170.26323936 -0.30252488 175.6313002 -0.16874792 181 0 C179.6380812 3.64927024 177.99076631 6.88509986 175.98046875 10.21875 C175.37710693 11.22244629 174.77374512 12.22614258 174.15209961 13.26025391 C173.1796228 14.86392822 173.1796228 14.86392822 172.1875 16.5 C171.51533447 17.6142334 170.84316895 18.7284668 170.15063477 19.87646484 C165.43772255 27.67960937 160.66032395 35.44237073 155.84643555 43.18359375 C151.26371751 50.55509321 146.74992157 57.96724645 142.24780273 65.38818359 C139.33417589 70.18494376 136.40470794 74.97053896 133.4375 79.734375 C132.86 80.66185547 132.2825 81.58933594 131.6875 82.54492188 C130.60691567 84.27710856 129.52381491 86.00772952 128.4375 87.73632812 C124.71721753 93.69943714 121.30966785 99.80024098 118 106 C118.3810791 106.60658447 118.7621582 107.21316895 119.15478516 107.83813477 C126.17274789 119.01718117 133.15928058 130.21143775 140 141.5 C145.33707741 150.30482313 150.76162189 159.05085791 156.23193359 167.7734375 C161.74831532 176.57669323 167.19878223 185.41938648 172.63427734 194.27270508 C173.577146 195.80834106 173.577146 195.80834106 174.5390625 197.375 C175.12977539 198.33921875 175.72048828 199.3034375 176.32910156 200.296875 C177.8490826 202.75585075 179.40140471 205.19103443 180.9609375 207.625 C183 211 183 211 183 213 C166.83 213 150.66 213 134 213 C126.40399451 199.15411658 118.91948241 185.25684734 111.52978516 171.30029297 C107.90303361 164.45277942 104.26131868 157.61422508 100.578125 150.796875 C99.87409203 149.49170611 99.17007159 148.18653047 98.46606445 146.88134766 C97.45929695 145.01529534 96.45113265 143.15007349 95.43832397 141.28729248 C94.51652543 139.59189395 93.59991828 137.89367586 92.68359375 136.1953125 C92.16337646 135.23641113 91.64315918 134.27750977 91.10717773 133.28955078 C90 131 90 131 90 129 C89.34 129 88.68 129 88 129 C87.63261719 130.49660156 87.63261719 130.49660156 87.2578125 132.0234375 C86.03953844 136.25879377 84.07473666 139.826708 81.875 143.625 C80.97180797 145.21826943 80.06953045 146.81205747 79.16796875 148.40625 C78.66700684 149.28796875 78.16604492 150.1696875 77.64990234 151.078125 C74.80325864 156.11935493 72.01031966 161.19031979 69.21551514 166.26040649 C68.18577292 168.12813255 67.15471266 169.99512662 66.12353516 171.86206055 C61.07376111 181.01222188 56.08489394 190.19398832 51.16088867 199.41259766 C50.66951416 200.32702637 50.17813965 201.24145508 49.671875 202.18359375 C49.2500293 202.97306396 48.82818359 203.76253418 48.39355469 204.57592773 C47.93368164 205.37587158 47.47380859 206.17581543 47 207 C46.51402344 208.07725342 46.02804688 209.15450684 45.52734375 210.2644043 C42.64174571 213.38777428 42.09764718 213.43595613 38.04785156 213.68115234 C35.99519754 213.68020382 33.94238906 213.64638294 31.890625 213.5859375 C30.80867859 213.57744781 29.72673218 213.56895813 28.61199951 213.56021118 C25.15698588 213.52662952 21.70430789 213.45133564 18.25 213.375 C15.90758579 213.34490682 13.565135 213.3175299 11.22265625 213.29296875 C5.48097421 213.22682273 -0.25934606 213.12642549 -6 213 C-4.80551806 209.84852843 -3.51604672 207.00632884 -1.70703125 204.1640625 C-1.24973633 203.44202637 -0.79244141 202.71999023 -0.32128906 201.97607422 C0.42556152 200.81229248 0.42556152 200.81229248 1.1875 199.625 C1.71504883 198.79629395 2.24259766 197.96758789 2.78613281 197.11376953 C7.51876495 189.7009644 12.32884957 182.33859012 17.14477539 174.97973633 C21.84932524 167.78541963 26.49918815 160.55766045 31.125 153.3125 C35.49014233 146.47576541 39.86382196 139.64543473 44.28833008 132.84692383 C45.37016725 131.18436991 46.44951942 129.52019578 47.52612305 127.85424805 C49.92302759 124.15091055 52.34673484 120.47845599 54.875 116.86328125 C55.31078369 116.22672607 55.74656738 115.5901709 56.19555664 114.93432617 C57.34388641 113.26138103 58.51286366 111.6026591 59.68359375 109.9453125 C61.33339618 107.07274988 61.33339618 107.07274988 60.27099609 104.14599609 C59.0502593 101.12440287 57.67775155 98.49653994 55.98046875 95.71875 C55.37750977 94.72415771 54.77455078 93.72956543 54.15332031 92.70483398 C53.50459961 91.64723877 52.85587891 90.58964355 52.1875 89.5 C51.1584731 87.80421569 50.12945698 86.10842451 49.10153198 84.41197205 C48.40457743 83.26218568 47.70692168 82.11282407 47.00857544 80.96388245 C43.87902272 75.81368054 40.80654014 70.63125341 37.75 65.4375 C32.74053022 56.9416034 27.71683215 48.454261 22.68264771 39.97299194 C21.85615293 38.58040264 21.02987738 37.18768322 20.2038269 35.79483032 C16.19856822 29.04148169 12.18731743 22.29266551 8.1171875 15.578125 C7.5507251 14.64242676 6.9842627 13.70672852 6.40063477 12.74267578 C5.3712265 11.04593245 4.33808674 9.35144517 3.30053711 7.65966797 C0 2.21974945 0 2.21974945 0 0 Z " fill="#FDFDFD" transform="translate(108,251)"/>
<path d="M0 0 C24.42 0 48.84 0 74 0 C74 58.74 74 117.48 74 178 C50.57 178 27.14 178 3 178 C2.98018066 172.96314941 2.96036133 167.92629883 2.93994141 162.73681641 C2.87302662 146.09272656 2.79548588 129.44869875 2.71247292 112.80468178 C2.66240294 102.71371595 2.61595944 92.62275802 2.578125 82.53173828 C2.54512991 73.73392227 2.50525734 64.93616856 2.45720994 56.13842142 C2.43201958 51.4823557 2.41021644 46.82633092 2.39665604 42.17021561 C2.38376773 37.78224388 2.36164116 33.39441305 2.33261681 29.00651932 C2.32359371 27.40140309 2.3178632 25.79626421 2.31578636 24.19112396 C2.31242623 21.9874171 2.29684986 19.7841008 2.2784729 17.58047485 C2.27294214 16.35080301 2.26741138 15.12113117 2.26171303 13.85419655 C1.94470954 9.18574823 0.91766637 4.58833186 0 0 Z " fill="#107C41" transform="translate(408,179)"/>
<path d="M0 0 C0.33 0 0.66 0 1 0 C1.0747135 4.96212553 1.1288656 9.92391641 1.16479492 14.88647461 C1.17978874 16.57110302 1.20019073 18.25569303 1.22631836 19.94018555 C1.42885805 33.34354736 0.68105201 44.42661621 -8.71484375 54.9140625 C-19.43029805 65.21316991 -32.26120523 64.56267245 -46.15893555 64.45410156 C-48.19008868 64.45297181 -50.22124344 64.45360944 -52.25239563 64.45587158 C-57.73931744 64.45701465 -63.22588625 64.43357133 -68.71272635 64.40557575 C-74.45688805 64.38049406 -80.20105871 64.37821477 -85.94526672 64.37347412 C-96.81059682 64.36106422 -107.67576506 64.32826945 -118.54102403 64.28807616 C-130.91586966 64.24329664 -143.2907232 64.22135587 -155.66562974 64.20129442 C-181.11053011 64.15953506 -206.55520873 64.08620745 -232 64 C-232 46.18 -232 28.36 -232 10 C-170.62 10 -109.24 10 -46 10 C-46 10.33 -46 10.66 -46 11 C-107.05 11 -168.1 11 -231 11 C-231 16.61 -231 22.22 -231 28 C-205.09595306 28.04632569 -179.19191612 28.08200351 -153.28783607 28.10362434 C-141.25974745 28.11393072 -129.23168506 28.1279789 -117.20361328 28.15087891 C-106.718234 28.17083227 -96.23287372 28.18372108 -85.74747598 28.18817699 C-80.19712177 28.19078106 -74.64682191 28.19688855 -69.09648514 28.21146011 C-63.86809176 28.22507474 -58.63977493 28.22921479 -53.41136551 28.22621536 C-51.49661848 28.22676379 -49.5818688 28.23071803 -47.66713715 28.23841095 C-27.58720274 28.61203828 -27.58720274 28.61203828 -10.25 19.5625 C-9.5075 18.716875 -8.765 17.87125 -8 17 C-7.29875 16.21625 -6.5975 15.4325 -5.875 14.625 C-2.67980902 10.15173263 -0.8222628 5.42693448 0 0 Z " fill="#124529" transform="translate(410,543)"/>
<path d="M0 0 C29.01596784 -0.09264757 58.03189998 -0.164005 87.04798603 -0.20724869 C89.73161647 -0.21132798 92.41524676 -0.21549326 95.09887695 -0.21972656 C96.09939539 -0.22130043 96.09939539 -0.22130043 97.12012633 -0.22290608 C107.90537326 -0.24028812 118.69053447 -0.27181358 129.47573064 -0.30861118 C140.55103097 -0.34608205 151.62628415 -0.36794961 162.7016446 -0.37635398 C168.91887607 -0.3815626 175.13591346 -0.39378022 181.35308266 -0.42292023 C187.20942452 -0.45014566 193.06549302 -0.45843048 198.92189217 -0.45243073 C201.06682574 -0.45352776 203.2117688 -0.46143885 205.35664749 -0.4768219 C219.23807231 -0.57146448 231.42142565 -0.61990857 241.98828125 9.60546875 C248.81735477 17.73405529 250.02802861 24.30831473 251 35 C268.49 35 285.98 35 304 35 C304 35.33 304 35.66 304 36 C294.32509802 36.18555212 284.65081045 36.32760108 274.97451591 36.41449738 C270.48106822 36.4562092 265.98883971 36.51275927 261.49609375 36.60351562 C257.15824584 36.69059219 252.82156853 36.73830428 248.48291397 36.75901794 C246.82978001 36.77377371 245.17670854 36.80259106 243.52407455 36.84584045 C230.54054682 37.17203258 230.54054682 37.17203258 226.71612549 34.26245117 C225.19844288 32.23609949 224.12332618 30.2597445 223 28 C215.37595048 20.54537381 207.48470952 18.40350995 197.08447266 18.26977539 C195.97658701 18.24148934 194.86870136 18.2132033 193.72724342 18.1840601 C189.81831433 18.09598972 185.90960332 18.0438326 182 18 C180.48720026 17.98105469 178.97440069 17.9620965 177.46160126 17.94312668 C165.84556489 17.80473718 154.2293632 17.74578289 142.61266279 17.69667697 C137.58124668 17.67446978 132.54985741 17.64725478 127.51846313 17.62062073 C118.03494782 17.57115454 108.55141722 17.52604932 99.06787264 17.48259836 C88.25246372 17.43282628 77.43708177 17.37805938 66.62169909 17.32291877 C44.41449118 17.20980816 22.20725692 17.1029982 0 17 C0 11.39 0 5.78 0 0 Z " fill="#1D925B" transform="translate(178,143)"/>
<path d="M0 0 C0.33 0 0.66 0 1 0 C1.73914931 11.76479318 -0.42204752 20.8989284 -8.07421875 30.05859375 C-14.03445031 36.06718419 -21.22620267 39.20769638 -29.72120655 39.25816262 C-30.43911873 39.25233693 -31.1570309 39.24651125 -31.896698 39.24050903 C-32.67361594 39.24221788 -33.45053389 39.24392673 -34.2509948 39.24568737 C-36.84434541 39.24897158 -39.43743509 39.23799627 -42.03076172 39.22705078 C-43.89369195 39.22648644 -45.75662264 39.22680368 -47.61955261 39.22793579 C-52.67072816 39.22850939 -57.72180863 39.21675378 -62.77296209 39.20278788 C-68.05405031 39.19028184 -73.33514072 39.18911011 -78.61624146 39.18673706 C-88.61399022 39.18052193 -98.61169522 39.16411063 -108.60942471 39.14403808 C-119.99265433 39.12168014 -131.37588604 39.11068591 -142.75913215 39.10064721 C-166.17277984 39.07974446 -189.58638562 39.04416473 -213 39 C-213 33.39 -213 27.78 -213 22 C-210.70673264 21.99635437 -208.41346527 21.99270874 -206.05070496 21.98895264 C-184.43602663 21.95269964 -162.8214869 21.89447553 -141.20691967 21.81609726 C-130.09473117 21.77632901 -118.98261326 21.74392524 -107.87036133 21.72900391 C-98.18218326 21.71597595 -88.49416065 21.68898198 -78.80607015 21.64538693 C-73.67875975 21.62279797 -68.55164092 21.60708779 -63.42427635 21.60811615 C-58.59215721 21.60886427 -53.76046116 21.5908524 -48.92845154 21.55883217 C-47.16089115 21.55035644 -45.39328318 21.54856733 -43.62571144 21.55419731 C-30.4146209 21.59065168 -18.28113912 20.1795885 -8 11 C-5.42153105 7.80599429 -3.1928265 4.46544901 -1 1 C-0.67 0.67 -0.34 0.34 0 0 Z " fill="#0B2A1A" transform="translate(392,532)"/>
<path d="M0 0 C6.93 0 13.86 0 21 0 C21 58.74 21 117.48 21 178 C15.06 178 9.12 178 3 178 C2.99191315 175.91748932 2.98382629 173.83497864 2.97549438 171.68936157 C2.89834173 152.06108096 2.8103696 132.43287005 2.71247292 112.80468178 C2.66240294 102.71371595 2.61595944 92.62275802 2.578125 82.53173828 C2.54512991 73.73392227 2.50525734 64.93616856 2.45720994 56.13842142 C2.43201958 51.4823557 2.41021644 46.82633092 2.39665604 42.17021561 C2.38376773 37.78224388 2.36164116 33.39441305 2.33261681 29.00651932 C2.32359371 27.40140309 2.3178632 25.79626421 2.31578636 24.19112396 C2.31242623 21.9874171 2.29684986 19.7841008 2.2784729 17.58047485 C2.27294214 16.35080301 2.26741138 15.12113117 2.26171303 13.85419655 C1.94470954 9.18574823 0.91766637 4.58833186 0 0 Z " fill="#0E703B" transform="translate(408,179)"/>
<path d="M0 0 C5.94 0 11.88 0 18 0 C21.30504049 8.86248368 21.40775535 17.22943468 21.34057617 26.55712891 C21.33972863 28.21375513 21.34020752 29.87038248 21.34190369 31.52700806 C21.3427601 35.99744793 21.32519204 40.46764351 21.30418181 44.93802691 C21.28535565 49.61983514 21.28365991 54.30164974 21.28010559 58.98348999 C21.27080251 67.83720246 21.24621236 76.69080305 21.21605712 85.54446638 C21.18245888 95.62913389 21.16601349 105.71380691 21.15097082 115.79851651 C21.11966118 136.53240834 21.06632628 157.26619316 21 178 C15.06 178 9.12 178 3 178 C2.99191315 175.88799194 2.98382629 173.77598389 2.97549438 171.59997559 C2.89838626 151.70618169 2.81042457 131.81245693 2.71247292 111.91875458 C2.66237466 101.69096875 2.61593139 91.46319082 2.578125 81.23535156 C2.54515943 72.31962778 2.50530296 63.40396583 2.45720994 54.48831034 C2.43199037 49.76859213 2.41019568 45.0489147 2.39665604 40.32914734 C2.38379446 35.88372797 2.36169601 31.43844878 2.33261681 26.99310684 C2.32357301 25.36457462 2.31785829 23.73601985 2.31578636 22.10746384 C2.3124411 19.87678285 2.29690344 17.64649387 2.2784729 15.41589355 C2.27294214 14.16962944 2.26741138 12.92336533 2.26171303 11.63933563 C2.04891187 7.2191367 2.04891187 7.2191367 0 0 Z " fill="#094826" transform="translate(390,179)"/>
<path d="M0 0 C13.21281167 -0.70503145 23.42932182 -0.91721992 34.20703125 7.78125 C37.61030805 10.9419307 39.41939331 13.59688137 41 18 C24.77027195 19.22488514 24.77027195 19.22488514 20.6796875 16.39453125 C19.26081061 14.32824332 18.14284619 12.22772193 17 10 C12.36883012 5.09494373 6.66848786 1.98065998 0 1 C0 0.67 0 0.34 0 0 Z " fill="#125E3A" transform="translate(366,161)"/>
</svg>
