<?xml version="1.0" encoding="UTF-8"?>
<svg version="1.1" xmlns="http://www.w3.org/2000/svg" width="900" height="900">
<path d="M0 0 C0.89231308 -0.00507454 1.78462615 -0.01014909 2.70397902 -0.0153774 C4.16834796 -0.01612404 4.16834796 -0.01612404 5.66230011 -0.01688576 C6.70264042 -0.02126801 7.74298074 -0.02565027 8.81484652 -0.03016531 C12.31221731 -0.04355441 15.8095629 -0.04973249 19.30695343 -0.0558567 C21.8102098 -0.06375767 24.31346503 -0.07202662 26.81671906 -0.08063698 C34.3376022 -0.10459618 41.85848409 -0.11978629 49.37939334 -0.13269705 C51.50497972 -0.13641079 53.63056546 -0.14038388 55.7561512 -0.14444971 C68.96570306 -0.16969082 82.17525601 -0.19173631 95.38482666 -0.20417786 C98.44350437 -0.20710739 101.50218205 -0.21006907 104.56085968 -0.21308327 C105.32104733 -0.21382932 106.08123498 -0.21457537 106.86445862 -0.21534403 C119.16843474 -0.22798722 131.47226602 -0.26119726 143.77617449 -0.3028851 C156.41893875 -0.34536849 169.061629 -0.36888036 181.70446444 -0.37409842 C188.79861708 -0.37750556 195.89254348 -0.38917783 202.98662567 -0.42220116 C209.66467423 -0.45323742 216.34226067 -0.45858273 223.02039337 -0.4468174 C225.46645832 -0.44659691 227.91254168 -0.45488162 230.3585434 -0.47247124 C246.1142639 -0.57957112 258.66979918 -0.5868818 270.64093781 10.97295189 C279.63589412 21.20540733 280.99108114 33.25413925 280.92359829 46.38730145 C280.92703593 47.82076373 280.93178551 49.25422335 280.93771926 50.68767747 C280.95020537 54.62126909 280.94408956 58.55464328 280.93488558 62.48823579 C280.92816964 66.76982882 280.93884499 71.05138473 280.94728142 75.33296984 C280.95965298 82.83531725 280.96085864 90.33760212 280.95473099 97.83995628 C280.94564319 108.99634549 280.95366936 120.15267683 280.96502223 131.3090616 C280.98469809 151.23481578 280.98703477 171.16054395 280.98182703 191.08630553 C280.97727139 208.52545514 280.97786711 225.96459446 280.98366737 243.40374374 C280.98442424 245.74222223 280.98518022 248.08070071 280.98593532 250.4191792 C280.9870805 253.94298222 280.98823038 257.46678523 280.98939456 260.99058825 C281.00010119 293.75618096 281.00482316 326.52177024 280.9969244 359.28736401 C280.99647864 361.14043877 280.99647864 361.14043877 280.99602388 363.03094939 C280.99357489 373.06338074 280.99096333 383.09581206 280.98833974 393.12824336 C280.97823739 432.26147305 280.98659185 471.39465983 281.00983429 510.52788353 C281.03590144 554.48826722 281.04875624 598.44862508 281.04164654 642.40901679 C281.04093047 647.09562377 281.04025608 651.78223075 281.03960609 656.46883774 C281.03943629 657.62281004 281.03926648 658.77678234 281.03909152 659.96572349 C281.0367877 677.3919537 281.04476953 694.81815994 281.05789757 712.24438477 C281.07279983 732.06113363 281.07366403 751.87782627 281.05582666 771.69457392 C281.04625488 782.78531056 281.04771645 793.87591613 281.06506135 804.96664405 C281.0755396 812.37566152 281.07146624 819.78457902 281.05558131 827.19358662 C281.04693809 831.41451019 281.04455272 835.63517669 281.05985063 839.85608719 C281.07365507 843.70124946 281.06882559 847.5459352 281.04956544 851.39106992 C281.04410817 853.41451953 281.05812476 855.43799365 281.07309678 857.46139523 C280.97372951 869.93585056 278.52481332 881.06364692 269.54328156 890.13701439 C261.15053315 897.91906384 251.90786539 900.74890285 240.6323185 900.64317226 C239.57420678 900.64928562 238.51609506 900.65539898 237.42591935 900.6616976 C233.88637161 900.67727672 230.34751107 900.66443922 226.80796051 900.65167809 C224.24225238 900.65700411 221.67654737 900.66407011 219.11084831 900.67272514 C213.53559301 900.68868361 207.96048871 900.68981645 202.38521957 900.68112755 C194.09444947 900.66824139 185.8038156 900.67822874 177.51305366 900.6926271 C162.70424896 900.71755226 147.89550822 900.71945254 133.08668867 900.71135298 C120.12597193 900.70427895 107.16528001 900.70422397 94.20456314 900.71121597 C92.46571959 900.71212731 90.72687604 900.71303807 88.98803248 900.71394826 C86.36771838 900.7153314 83.74740429 900.71672249 81.12709021 900.71813439 C56.76723293 900.73111439 32.40738397 900.73623047 8.04752541 900.72460079 C7.12934911 900.72416282 6.2111728 900.72372485 5.26517298 900.72327361 C-2.19096089 900.71966682 -9.64709465 900.71583203 -17.1032284 900.71198268 C-46.18675078 900.69713558 -75.27017925 900.70591402 -104.3536911 900.73393822 C-137.03442805 900.76536845 -169.7151094 900.78033538 -202.39586174 900.7701382 C-205.88069732 900.76910144 -209.3655329 900.76811421 -212.8503685 900.76715469 C-213.70841402 900.76690581 -214.56645954 900.76665692 -215.45050644 900.76640049 C-228.40093952 900.76296097 -241.35132351 900.77226451 -254.30174637 900.78792572 C-269.03035379 900.80569643 -283.75884172 900.80582364 -298.48744403 900.78257407 C-306.72789113 900.7700767 -314.96806367 900.77131497 -323.20849463 900.79245493 C-329.36365392 900.80669149 -335.51850261 900.79474986 -341.67363288 900.77265798 C-344.16208904 900.76776837 -346.6505791 900.77130743 -349.13900696 900.78414542 C-364.93170655 900.85973882 -377.55526855 900.88791718 -389.55437469 889.30107689 C-398.94350473 878.6202185 -399.90275537 865.98332653 -399.8443985 852.36789513 C-399.84857639 850.77635282 -399.8540564 849.1848135 -399.86071831 847.59327966 C-399.87513212 843.23990377 -399.87094094 838.88671786 -399.8635515 834.53333175 C-399.858812 829.83040218 -399.87133664 825.12751324 -399.88156891 820.42459679 C-399.89874738 811.21864662 -399.89959883 802.01276474 -399.894356 792.80680271 C-399.89031102 785.32192414 -399.89176177 777.83706572 -399.89710426 770.35218811 C-399.89785269 769.28600697 -399.89860111 768.21982583 -399.89937221 767.12133617 C-399.90090372 764.95522401 -399.90244207 762.78911185 -399.90398718 760.62299971 C-399.91770897 740.31835193 -399.91227695 720.01374271 -399.90080196 699.70909581 C-399.89087167 681.14661157 -399.90380732 662.58422703 -399.92773616 644.02175816 C-399.95213839 624.94788912 -399.96173215 605.8740665 -399.95508343 586.80018216 C-399.95159349 576.09725153 -399.95380835 565.39439754 -399.97133446 554.69147873 C-399.98607054 545.57956174 -399.98667355 536.46777538 -399.96926355 527.35586091 C-399.96076247 522.7101628 -399.95858212 518.0646979 -399.9739151 513.41901207 C-399.98779896 509.15952174 -399.98295183 504.90046361 -399.96367586 500.64099804 C-399.95992682 499.10675672 -399.96280598 497.57248047 -399.97328752 496.03827038 C-400.05222588 483.59076665 -398.78321712 471.82322623 -390.36687469 462.06670189 C-382.75211745 454.37408414 -374.37788573 450.02198409 -363.4457016 449.65599632 C-360.72055509 449.64447952 -358.00102567 449.65411734 -355.27654266 449.68291283 C-353.76769796 449.68404317 -352.25885106 449.6834038 -350.75000763 449.68114281 C-346.68235144 449.68000201 -342.61517361 449.70340738 -338.54762793 449.73143864 C-334.28624027 449.75655905 -330.02483987 449.75880264 -325.76338959 449.76354027 C-317.70648508 449.77593894 -309.64979943 449.80871813 -301.59299099 449.84893823 C-292.41521379 449.8937531 -283.23742576 449.91566733 -274.05956626 449.93571997 C-255.19182656 449.97745378 -236.32429014 450.04774491 -217.45671844 450.13701439 C-217.46040562 449.13094706 -217.46409279 448.12487972 -217.46789169 447.0883255 C-217.55674859 422.59168734 -217.62244932 398.09507011 -217.66396713 373.59830475 C-217.68457926 361.75177464 -217.7126742 349.9053511 -217.75847626 338.05888939 C-217.79838517 327.73172269 -217.82416106 317.40463318 -217.83307242 307.07739151 C-217.83828026 301.61080104 -217.85049272 296.14443136 -217.87963867 290.67791176 C-217.9068717 285.52825112 -217.91514746 280.37890138 -217.90914917 275.22917557 C-217.91024588 273.3434416 -217.91815256 271.4576968 -217.93354034 269.5720253 C-218.04701226 254.94420188 -216.35360174 244.3760855 -205.83171844 233.44951439 C-198.87297728 227.00623554 -191.01399215 224.91810275 -181.91765594 222.98857689 C-178.28336419 222.09436063 -174.89444611 220.89579238 -171.39421844 219.57451439 C-152.46673249 212.63304652 -131.36661189 213.99049509 -111.48406219 214.03935814 C-109.22149436 214.04122791 -106.95892611 214.04264916 -104.69635773 214.04364586 C-98.799592 214.04742709 -92.9028517 214.05721878 -87.00609589 214.06834984 C-80.96555169 214.0786595 -74.92500331 214.08316376 -68.88445282 214.08818626 C-57.07519698 214.09884589 -45.26595984 214.11586815 -33.45671844 214.13701439 C-33.45948382 213.20309931 -33.4622492 212.26918423 -33.46509838 211.30696869 C-33.53175332 188.56280884 -33.58102244 165.8186617 -33.61215496 143.07442474 C-33.62761131 132.07539583 -33.64867731 121.07643152 -33.6830368 110.07744408 C-33.71297684 100.48860565 -33.7323024 90.89981401 -33.73898393 81.31093013 C-33.74288837 76.23561743 -33.75203876 71.16043857 -33.77390862 66.08516884 C-33.79434648 61.30324807 -33.80053751 56.52151566 -33.79604149 51.73955536 C-33.79686343 49.98928299 -33.80278543 48.23900399 -33.81433487 46.48876953 C-33.90283247 32.3795963 -32.71954193 20.79330566 -22.56999969 10.16045189 C-16.08775797 4.17488488 -8.97056057 0.02716475 0 0 Z " fill="#EDC349" transform="translate(509.4567184448242,-0.13701438903808594)"/>
<path d="M0 0 C0.89231308 -0.00507454 1.78462615 -0.01014909 2.70397902 -0.0153774 C4.16834796 -0.01612404 4.16834796 -0.01612404 5.66230011 -0.01688576 C6.70264042 -0.02126801 7.74298074 -0.02565027 8.81484652 -0.03016531 C12.31221731 -0.04355441 15.8095629 -0.04973249 19.30695343 -0.0558567 C21.8102098 -0.06375767 24.31346503 -0.07202662 26.81671906 -0.08063698 C34.3376022 -0.10459618 41.85848409 -0.11978629 49.37939334 -0.13269705 C51.50497972 -0.13641079 53.63056546 -0.14038388 55.7561512 -0.14444971 C68.96570306 -0.16969082 82.17525601 -0.19173631 95.38482666 -0.20417786 C98.44350437 -0.20710739 101.50218205 -0.21006907 104.56085968 -0.21308327 C105.32104733 -0.21382932 106.08123498 -0.21457537 106.86445862 -0.21534403 C119.16843474 -0.22798722 131.47226602 -0.26119726 143.77617449 -0.3028851 C156.41893875 -0.34536849 169.061629 -0.36888036 181.70446444 -0.37409842 C188.79861708 -0.37750556 195.89254348 -0.38917783 202.98662567 -0.42220116 C209.66467423 -0.45323742 216.34226067 -0.45858273 223.02039337 -0.4468174 C225.46645832 -0.44659691 227.91254168 -0.45488162 230.3585434 -0.47247124 C246.1142639 -0.57957112 258.66979918 -0.5868818 270.64093781 10.97295189 C279.63589412 21.20540733 280.99108114 33.25413925 280.92359829 46.38730145 C280.92703593 47.82076373 280.93178551 49.25422335 280.93771926 50.68767747 C280.95020537 54.62126909 280.94408956 58.55464328 280.93488558 62.48823579 C280.92816964 66.76982882 280.93884499 71.05138473 280.94728142 75.33296984 C280.95965298 82.83531725 280.96085864 90.33760212 280.95473099 97.83995628 C280.94564319 108.99634549 280.95366936 120.15267683 280.96502223 131.3090616 C280.98469809 151.23481578 280.98703477 171.16054395 280.98182703 191.08630553 C280.97727139 208.52545514 280.97786711 225.96459446 280.98366737 243.40374374 C280.98442424 245.74222223 280.98518022 248.08070071 280.98593532 250.4191792 C280.9870805 253.94298222 280.98823038 257.46678523 280.98939456 260.99058825 C281.00010119 293.75618096 281.00482316 326.52177024 280.9969244 359.28736401 C280.99662723 360.52274718 280.99633005 361.75813036 280.99602388 363.03094939 C280.99357489 373.06338074 280.99096333 383.09581206 280.98833974 393.12824336 C280.97823739 432.26147305 280.98659185 471.39465983 281.00983429 510.52788353 C281.03590144 554.48826722 281.04875624 598.44862508 281.04164654 642.40901679 C281.04093047 647.09562377 281.04025608 651.78223075 281.03960609 656.46883774 C281.03943629 657.62281004 281.03926648 658.77678234 281.03909152 659.96572349 C281.0367877 677.3919537 281.04476953 694.81815994 281.05789757 712.24438477 C281.07279983 732.06113363 281.07366403 751.87782627 281.05582666 771.69457392 C281.04625488 782.78531056 281.04771645 793.87591613 281.06506135 804.96664405 C281.0755396 812.37566152 281.07146624 819.78457902 281.05558131 827.19358662 C281.04693809 831.41451019 281.04455272 835.63517669 281.05985063 839.85608719 C281.07365507 843.70124946 281.06882559 847.5459352 281.04956544 851.39106992 C281.04410817 853.41451953 281.05812476 855.43799365 281.07309678 857.46139523 C280.97372951 869.93585056 278.52481332 881.06364692 269.54328156 890.13701439 C259.63574932 899.32362432 249.1274385 900.72621582 236.08771515 900.59111595 C234.54931417 900.58998567 233.01091103 900.59062486 231.47251129 900.59288597 C227.32428306 900.594027 223.17652367 900.57061764 219.02840376 900.54259014 C214.68293393 900.51747381 210.33745169 900.51522646 205.99192047 900.51048851 C197.77564617 900.49808866 189.55958642 900.46530782 181.34340632 900.42509055 C171.98425348 900.38027941 162.62509003 900.35836237 153.2658565 900.33830881 C134.02487685 900.29657231 114.78409649 900.22627883 95.54328156 900.13701439 C95.54303735 899.57792164 95.54279315 899.0188289 95.54254155 898.44279395 C95.51581419 837.57513782 95.48414632 776.7074852 95.42664337 715.83984947 C95.42535711 714.47609174 95.42535711 714.47609174 95.42404486 713.08478334 C95.40537937 693.32618344 95.38582687 673.56758452 95.3653606 653.80898641 C95.35532939 644.11941973 95.3454942 634.42985286 95.33576202 624.74028587 C95.33430431 623.29394083 95.33430431 623.29394083 95.33281716 621.81837669 C95.30140817 590.56309685 95.28294346 559.30782564 95.27118909 528.05253275 C95.25904192 495.93452127 95.23384035 463.81654586 95.19220542 431.69855843 C95.1863313 427.16245261 95.18060646 422.62634661 95.17497253 418.09024048 C95.17385908 417.19746692 95.17274562 416.30469336 95.17159842 415.38486606 C95.15405644 401.01181213 95.15028202 386.63878594 95.15165235 372.26572273 C95.15273621 357.81706394 95.13932464 343.36847623 95.11111727 328.91984441 C95.09479782 320.33490811 95.08959212 311.75013264 95.10030981 303.16518662 C95.10637584 297.42864553 95.09794118 291.69224335 95.07778926 285.95573477 C95.06672364 282.68821205 95.06410262 279.42108006 95.07476911 276.1535463 C95.08529111 272.62849487 95.07122893 269.10435253 95.05109024 265.57936192 C95.05999395 264.57185191 95.06889766 263.56434191 95.07807118 262.52630129 C94.95696977 251.4799072 91.33746294 242.05466795 83.54328156 234.13701439 C74.71768988 226.51263746 64.3230788 224.6782265 52.95729828 224.73828697 C51.95151283 224.73164015 50.94572738 224.72499332 49.90946358 224.71814507 C46.57155827 224.69963522 43.23401521 224.70211227 39.89606476 224.70464134 C37.49052682 224.69561686 35.08499348 224.68528797 32.67946625 224.67375755 C26.84623756 224.64909291 21.01309799 224.63794692 15.17982195 224.63288013 C8.38695005 224.6262415 1.59416716 224.6027537 -5.19866011 224.578285 C-17.31062279 224.53509874 -29.42258036 224.50508551 -41.5345993 224.48344994 C-53.29406495 224.46241571 -65.05348882 224.43511937 -76.81291962 224.39946556 C-77.90182506 224.39616732 -77.90182506 224.39616732 -79.01272859 224.39280245 C-82.65486532 224.38173219 -86.29700165 224.3705395 -89.93913782 224.35928595 C-120.11162921 224.26621651 -150.2841376 224.19478612 -180.45671844 224.13701439 C-167.48091663 211.16121257 -138.01658232 214.03508903 -121.11238194 214.0209341 C-117.90292815 214.02378561 -114.69350721 214.03147066 -111.48406219 214.03935814 C-109.22149436 214.04122791 -106.95892611 214.04264916 -104.69635773 214.04364586 C-98.799592 214.04742709 -92.9028517 214.05721878 -87.00609589 214.06834984 C-80.96555169 214.0786595 -74.92500331 214.08316376 -68.88445282 214.08818626 C-57.07519698 214.09884589 -45.26595984 214.11586815 -33.45671844 214.13701439 C-33.45948382 213.20309931 -33.4622492 212.26918423 -33.46509838 211.30696869 C-33.53175332 188.56280884 -33.58102244 165.8186617 -33.61215496 143.07442474 C-33.62761131 132.07539583 -33.64867731 121.07643152 -33.6830368 110.07744408 C-33.71297684 100.48860565 -33.7323024 90.89981401 -33.73898393 81.31093013 C-33.74288837 76.23561743 -33.75203876 71.16043857 -33.77390862 66.08516884 C-33.79434648 61.30324807 -33.80053751 56.52151566 -33.79604149 51.73955536 C-33.79686343 49.98928299 -33.80278543 48.23900399 -33.81433487 46.48876953 C-33.90283247 32.3795963 -32.71954193 20.79330566 -22.56999969 10.16045189 C-16.08775797 4.17488488 -8.97056057 0.02716475 0 0 Z " fill="#D08C0B" transform="translate(509.4567184448242,-0.13701438903808594)"/>
<path d="M0 0 C1.04546686 -0.00694553 2.09093373 -0.01389106 3.1680814 -0.02104706 C6.64703523 -0.03924192 10.12530133 -0.02907329 13.60427856 -0.01878357 C16.10842395 -0.02584583 18.61256506 -0.03459214 21.11669922 -0.04489136 C27.19814169 -0.06503053 33.27931728 -0.06642124 39.3607658 -0.05826581 C44.30704829 -0.05194988 49.25327632 -0.0531174 54.19955826 -0.05953789 C54.90523116 -0.06043954 55.61090406 -0.0613412 56.337961 -0.06227018 C57.77182889 -0.0641215 59.20569678 -0.06598406 60.63956465 -0.06785773 C74.06740906 -0.08441377 87.49514822 -0.0757361 100.92298628 -0.05887216 C113.18780319 -0.04418072 125.45237499 -0.05879955 137.71716033 -0.08764232 C150.33301999 -0.11708806 162.94876674 -0.12799333 175.56465924 -0.11846012 C176.99367911 -0.11743764 178.422699 -0.11644303 179.8517189 -0.11547661 C180.55469271 -0.11500022 181.25766651 -0.11452383 181.98194256 -0.114033 C186.91673558 -0.1118755 191.85142088 -0.12163754 196.78619003 -0.13624763 C203.43969345 -0.15567269 210.09281619 -0.1486039 216.74632645 -0.12404823 C219.18270391 -0.11905109 221.61911619 -0.12250139 224.0554657 -0.13519669 C239.83695054 -0.21090034 252.29836187 -0.17020622 264.2571106 11.4209137 C272.6913713 20.70379611 274.62912897 31.56778456 274.51589966 43.81837463 C274.51792137 44.91484975 274.51994308 46.01132486 274.52202606 47.1410265 C274.52500619 50.84385784 274.50622447 54.5462574 274.48757935 58.2490387 C274.48317403 60.98918674 274.48324953 63.72933127 274.48300171 66.46948242 C274.47951884 73.30718633 274.45928517 80.1447517 274.43405747 86.98240596 C274.41359877 92.66093097 274.4002547 98.33943521 274.39163208 104.01799011 C274.39038393 104.83820654 274.38913578 105.65842297 274.38784981 106.50349444 C274.38531242 108.18631211 274.38278401 109.86912978 274.38026428 111.55194747 C274.34637015 133.25302648 274.27362717 154.95395424 274.19738579 176.65491873 C274.16831968 184.92982208 274.14012919 193.20472812 274.11244032 201.47963618 C273.85884696 277.26382822 273.56994755 353.04785687 273.15945435 450.5146637 C237.18383169 450.6291939 201.20824108 450.71725559 165.23247354 450.76999034 C160.98189653 450.77624362 156.73131988 450.78271526 152.48074341 450.7893219 C151.63455654 450.79063345 150.78836967 450.791945 149.91654077 450.7932963 C136.22848859 450.81503249 122.54054177 450.85444413 108.85255203 450.90042768 C94.79966644 450.94724212 80.74683591 450.97496962 66.69387555 450.98510617 C58.02756942 450.99195501 49.36156115 451.01355929 40.69534674 451.05424603 C34.74661504 451.08074605 28.79803656 451.08864834 22.84925017 451.08217058 C19.42080834 451.07897889 15.99288573 451.08375169 12.56453705 451.11069107 C8.83736402 451.13567938 5.11145085 451.12954596 1.38424683 451.11593628 C0.31417161 451.13050049 -0.75590361 451.14506469 -1.85840535 451.16007024 C-12.786688 451.05269146 -22.05205305 447.29392238 -29.9382019 439.6787262 C-39.32733193 428.9978678 -40.28658257 416.36097584 -40.22822571 402.74554443 C-40.2324036 401.15400213 -40.23788361 399.56246281 -40.24454552 397.97092897 C-40.25895933 393.61755308 -40.25476815 389.26436717 -40.24737871 384.91098106 C-40.24263921 380.20805149 -40.25516385 375.50516255 -40.26539612 370.80224609 C-40.28257459 361.59629593 -40.28342604 352.39041405 -40.27818321 343.18445202 C-40.27413823 335.69957345 -40.27558898 328.21471503 -40.28093147 320.72983742 C-40.28167989 319.66365628 -40.28242832 318.59747513 -40.28319942 317.49898547 C-40.28473093 315.33287331 -40.28626928 313.16676116 -40.28781439 311.00064901 C-40.30153618 290.69600124 -40.29610416 270.39139201 -40.28462917 250.08674512 C-40.27469888 231.52426087 -40.28763453 212.96187634 -40.31156337 194.39940747 C-40.3359656 175.32553843 -40.34555936 156.25171581 -40.33891064 137.17783147 C-40.3354207 126.47490083 -40.33763556 115.77204685 -40.35516167 105.06912804 C-40.36989775 95.95721105 -40.37050076 86.84542469 -40.35309076 77.73351022 C-40.34458968 73.08781211 -40.34240933 68.44234721 -40.35774231 63.79666138 C-40.37162617 59.53717105 -40.36677904 55.27811292 -40.34750307 51.01864735 C-40.34375403 49.48440603 -40.34663319 47.95012978 -40.35711472 46.41591968 C-40.43605309 33.96841596 -39.16704433 22.20087553 -30.7507019 12.4443512 C-21.9748944 3.57881151 -12.39605413 -0.106546 0 0 Z " fill="#F5D95E" transform="translate(149.84054565429688,449.48533630371094)"/>
<path d="M0 0 C2.26256783 0.00186977 4.52513608 0.00329102 6.78770447 0.00428772 C12.68447019 0.00806895 18.58121049 0.01786064 24.47796631 0.0289917 C30.5185105 0.03930136 36.55905888 0.04380562 42.59960938 0.04882812 C54.40886521 0.05948775 66.21810235 0.07651001 78.02734375 0.09765625 C78.02734375 3.39765625 78.02734375 6.69765625 78.02734375 10.09765625 C29.51734375 10.09765625 -18.99265625 10.09765625 -68.97265625 10.09765625 C-54.28855767 -4.58644233 -18.98224833 -0.04665048 0 0 Z " fill="#000000" transform="translate(397.97265625,213.90234375)"/>
</svg>
